<svg width="54" height="54" viewBox="0 0 54 54" fill="none" xmlns="http://www.w3.org/2000/svg">
<path d="M33.1297 1.32788C33.2512 0.874433 33.7173 0.605338 34.1707 0.726838C34.6242 0.848339 34.8933 1.31443 34.7718 1.76787L21.132 52.6722C21.0105 53.1256 20.5444 53.3947 20.091 53.2732C19.6375 53.1517 19.3684 52.6856 19.4899 52.2322L33.1297 1.32788Z" fill="white"/>
<path d="M45.1622 7.76666C45.4941 7.43472 46.0323 7.43472 46.3642 7.76666C46.6962 8.09861 46.6962 8.6368 46.3642 8.96875L9.09972 46.2333C8.76777 46.5652 8.22958 46.5652 7.89763 46.2333C7.56569 45.9013 7.56569 45.3631 7.89763 45.0312L45.1622 7.76666Z" fill="white"/>
<path d="M52.3631 19.3591C52.8165 19.2376 53.2826 19.5067 53.4041 19.9601C53.5256 20.4136 53.2565 20.8797 52.8031 21.0012L1.89876 34.6409C1.44532 34.7624 0.979232 34.4933 0.857731 34.0399C0.736231 33.5864 1.00533 33.1203 1.45877 32.9988L52.3631 19.3591Z" fill="white"/>
<path d="M52.803 32.9989C53.2565 33.1204 53.5255 33.5865 53.404 34.0399C53.2825 34.4934 52.8165 34.7624 52.363 34.6409L1.45872 21.0012C1.00528 20.8797 0.73618 20.4136 0.85768 19.9602C0.979181 19.5067 1.44527 19.2376 1.89871 19.3591L52.803 32.9989Z" fill="white"/>
<path d="M46.3642 45.0312C46.6962 45.3632 46.6962 45.9014 46.3642 46.2333C46.0323 46.5653 45.4941 46.5653 45.1621 46.2333L7.89761 8.96879C7.56566 8.63684 7.56566 8.09865 7.89761 7.76671C8.22955 7.43476 8.76774 7.43476 9.09969 7.76671L46.3642 45.0312Z" fill="white"/>
<path d="M34.7718 52.2321C34.8933 52.6856 34.6242 53.1517 34.1708 53.2732C33.7173 53.3947 33.2512 53.1256 33.1297 52.6721L19.49 1.76784C19.3685 1.31439 19.6376 0.848306 20.091 0.726806C20.5444 0.605305 21.0105 0.8744 21.132 1.32785L34.7718 52.2321Z" fill="white"/>
<path fill-rule="evenodd" clip-rule="evenodd" d="M26.2808 2.35001C25.8114 2.35001 25.4308 2.73056 25.4308 3.20001V12.5019C25.4308 13.013 25.879 13.4065 26.3894 13.3791C26.6349 13.3659 26.8821 13.3592 27.1308 13.3592C27.3796 13.3592 27.6268 13.3659 27.8723 13.3791C28.3827 13.4065 28.8308 13.013 28.8308 12.5019V3.20001C28.8308 2.73056 28.4503 2.35001 27.9808 2.35001H26.2808ZM32.9069 13.5956C32.6514 14.038 32.8425 14.6025 33.2978 14.8345C33.739 15.0594 34.1663 15.3076 34.5781 15.5776C35.0066 15.8586 35.5933 15.7426 35.8495 15.2989L40.5031 7.23859C40.7378 6.83204 40.5985 6.31219 40.192 6.07747L38.7197 5.22747C38.3132 4.99275 37.7933 5.13204 37.5586 5.53859L32.9069 13.5956ZM38.8217 18.2873C38.3792 18.5428 38.2624 19.1273 38.541 19.5557C38.8093 19.9684 39.0559 20.3967 39.2791 20.8388C39.51 21.2962 40.0761 21.4891 40.5198 21.2329L48.5923 16.5722C48.9988 16.3375 49.1381 15.8177 48.9034 15.4111L48.0534 13.9389C47.8187 13.5323 47.2988 13.393 46.8923 13.6278L38.8217 18.2873ZM41.5903 25.3C41.0802 25.3 40.687 25.7464 40.713 26.2559C40.7248 26.4889 40.7308 26.7233 40.7308 26.9592C40.7308 27.2209 40.7234 27.4808 40.7089 27.7388C40.68 28.2501 41.0738 28.7 41.586 28.7H50.9308C51.4003 28.7 51.7808 28.3194 51.7808 27.85V26.15C51.7808 25.6806 51.4003 25.3 50.9308 25.3H41.5903ZM40.4877 32.7486C40.0456 32.4933 39.4815 32.6839 39.2492 33.1386C39.0239 33.5796 38.7752 34.0066 38.5048 34.4181C38.2232 34.8466 38.3389 35.434 38.783 35.6903L46.8923 40.3722C47.2988 40.607 47.8187 40.4677 48.0534 40.0611L48.9034 38.5889C49.1381 38.1823 48.9988 37.6625 48.5923 37.4278L40.4877 32.7486ZM35.8153 38.6419C35.5596 38.1991 34.9745 38.0825 34.5461 38.3617C34.1336 38.6305 33.7056 38.8776 33.2638 39.1012C32.807 39.3324 32.6145 39.898 32.8705 40.3414L37.5586 48.4614C37.7933 48.868 38.3132 49.0073 38.7197 48.7725L40.192 47.9225C40.5985 47.6878 40.7378 47.168 40.5031 46.7614L35.8153 38.6419ZM28.8308 41.4166C28.8308 40.9054 28.3827 40.5119 27.8723 40.5394C27.6268 40.5525 27.3796 40.5592 27.1308 40.5592C26.8821 40.5592 26.6349 40.5525 26.3894 40.5394C25.879 40.5119 25.4308 40.9054 25.4308 41.4166V50.8C25.4308 51.2694 25.8114 51.65 26.2808 51.65H27.9808C28.4503 51.65 28.8308 51.2694 28.8308 50.8V41.4166ZM21.3912 40.3414C21.6472 39.898 21.4547 39.3324 20.9979 39.1012C20.5561 38.8776 20.1281 38.6305 19.7156 38.3617C19.2872 38.0825 18.7021 38.1991 18.4464 38.6419L13.7586 46.7614C13.5239 47.1679 13.6632 47.6878 14.0697 47.9225L15.542 48.7725C15.9485 49.0072 16.4684 48.868 16.7031 48.4614L21.3912 40.3414ZM15.4787 35.6904C15.9228 35.434 16.0385 34.8467 15.7569 34.4181C15.4865 34.0066 15.2378 33.5796 15.0125 33.1386C14.7802 32.6839 14.2161 32.4933 13.774 32.7486L5.66945 37.4278C5.26291 37.6625 5.12361 38.1823 5.35833 38.5889L6.20833 40.0611C6.44305 40.4677 6.9629 40.607 7.36945 40.3722L15.4787 35.6904ZM12.6757 28.7C13.1879 28.7 13.5817 28.2501 13.5528 27.7388C13.5382 27.4808 13.5308 27.2209 13.5308 26.9592C13.5308 26.7233 13.5368 26.4889 13.5487 26.2559C13.5747 25.7464 13.1815 25.3 12.6714 25.3H3.33085C2.86141 25.3 2.48085 25.6806 2.48085 26.15V27.85C2.48085 28.3194 2.86141 28.7 3.33085 28.7H12.6757ZM13.7419 21.2329C14.1856 21.489 14.7517 21.2961 14.9826 20.8388C15.2058 20.3967 15.4523 19.9684 15.7207 19.5556C15.9993 19.1273 15.8825 18.5428 15.44 18.2873L7.36945 13.6278C6.96291 13.393 6.44305 13.5323 6.20833 13.9389L5.35833 15.4111C5.12361 15.8177 5.26291 16.3375 5.66945 16.5722L13.7419 21.2329ZM18.4122 15.2989C18.6684 15.7426 19.2551 15.8586 19.6836 15.5776C20.0954 15.3076 20.5227 15.0594 20.9639 14.8345C21.4191 14.6025 21.6102 14.038 21.3548 13.5955L16.7031 5.53861C16.4684 5.13206 15.9485 4.99276 15.542 5.22749L14.0697 6.07749C13.6632 6.31221 13.5239 6.83206 13.7586 7.23861L18.4122 15.2989Z" fill="#80ABFF"/>
</svg>
