<svg width="230" height="54" viewBox="0 0 230 54" fill="none" xmlns="http://www.w3.org/2000/svg">
<path d="M33.1297 1.32788C33.2512 0.874433 33.7173 0.605338 34.1707 0.726838C34.6242 0.848339 34.8933 1.31443 34.7718 1.76787L21.132 52.6722C21.0105 53.1256 20.5444 53.3947 20.091 53.2732C19.6375 53.1517 19.3684 52.6856 19.4899 52.2322L33.1297 1.32788Z" fill="#0059FF"/>
<path d="M45.1622 7.76666C45.4941 7.43472 46.0323 7.43472 46.3642 7.76666C46.6962 8.09861 46.6962 8.6368 46.3642 8.96875L9.09972 46.2333C8.76777 46.5652 8.22958 46.5652 7.89763 46.2333C7.56569 45.9013 7.56569 45.3631 7.89763 45.0312L45.1622 7.76666Z" fill="#0059FF"/>
<path d="M52.3631 19.3591C52.8165 19.2376 53.2826 19.5067 53.4041 19.9601C53.5256 20.4136 53.2565 20.8797 52.8031 21.0012L1.89876 34.6409C1.44532 34.7624 0.979232 34.4933 0.857731 34.0399C0.736231 33.5864 1.00533 33.1203 1.45877 32.9988L52.3631 19.3591Z" fill="#0059FF"/>
<path d="M52.803 32.9989C53.2565 33.1204 53.5255 33.5865 53.404 34.0399C53.2825 34.4934 52.8165 34.7624 52.363 34.6409L1.45872 21.0012C1.00528 20.8797 0.73618 20.4136 0.85768 19.9602C0.979181 19.5067 1.44527 19.2376 1.89871 19.3591L52.803 32.9989Z" fill="#0059FF"/>
<path d="M46.3642 45.0312C46.6962 45.3632 46.6962 45.9014 46.3642 46.2333C46.0323 46.5653 45.4941 46.5653 45.1621 46.2333L7.89761 8.96879C7.56566 8.63684 7.56566 8.09865 7.89761 7.76671C8.22955 7.43476 8.76774 7.43476 9.09969 7.76671L46.3642 45.0312Z" fill="#0059FF"/>
<path d="M34.7718 52.2321C34.8933 52.6856 34.6242 53.1517 34.1708 53.2732C33.7173 53.3947 33.2512 53.1256 33.1297 52.6721L19.49 1.76784C19.3685 1.31439 19.6376 0.848306 20.091 0.726806C20.5444 0.605305 21.0105 0.8744 21.132 1.32785L34.7718 52.2321Z" fill="#0059FF"/>
<path fill-rule="evenodd" clip-rule="evenodd" d="M26.2808 2.35001C25.8114 2.35001 25.4308 2.73056 25.4308 3.20001V12.5019C25.4308 13.013 25.879 13.4065 26.3894 13.3791C26.6349 13.3659 26.8821 13.3592 27.1308 13.3592C27.3796 13.3592 27.6268 13.3659 27.8723 13.3791C28.3827 13.4065 28.8308 13.013 28.8308 12.5019V3.20001C28.8308 2.73056 28.4503 2.35001 27.9808 2.35001H26.2808ZM32.9069 13.5956C32.6514 14.038 32.8425 14.6025 33.2978 14.8345C33.739 15.0594 34.1663 15.3076 34.5781 15.5776C35.0066 15.8586 35.5933 15.7426 35.8495 15.2989L40.5031 7.23859C40.7378 6.83204 40.5985 6.31219 40.192 6.07747L38.7197 5.22747C38.3132 4.99275 37.7933 5.13204 37.5586 5.53859L32.9069 13.5956ZM38.8217 18.2873C38.3792 18.5428 38.2624 19.1273 38.541 19.5557C38.8093 19.9684 39.0559 20.3967 39.2791 20.8388C39.51 21.2962 40.0761 21.4891 40.5198 21.2329L48.5923 16.5722C48.9988 16.3375 49.1381 15.8177 48.9034 15.4111L48.0534 13.9389C47.8187 13.5323 47.2988 13.393 46.8923 13.6278L38.8217 18.2873ZM41.5903 25.3C41.0802 25.3 40.687 25.7464 40.713 26.2559C40.7248 26.4889 40.7308 26.7233 40.7308 26.9592C40.7308 27.2209 40.7234 27.4808 40.7089 27.7388C40.68 28.2501 41.0738 28.7 41.586 28.7H50.9308C51.4003 28.7 51.7808 28.3194 51.7808 27.85V26.15C51.7808 25.6806 51.4003 25.3 50.9308 25.3H41.5903ZM40.4877 32.7486C40.0456 32.4933 39.4815 32.6839 39.2492 33.1386C39.0239 33.5796 38.7752 34.0066 38.5048 34.4181C38.2232 34.8466 38.3389 35.434 38.783 35.6903L46.8923 40.3722C47.2988 40.607 47.8187 40.4677 48.0534 40.0611L48.9034 38.5889C49.1381 38.1823 48.9988 37.6625 48.5923 37.4278L40.4877 32.7486ZM35.8153 38.6419C35.5596 38.1991 34.9745 38.0825 34.5461 38.3617C34.1336 38.6305 33.7056 38.8776 33.2638 39.1012C32.807 39.3324 32.6145 39.898 32.8705 40.3414L37.5586 48.4614C37.7933 48.868 38.3132 49.0073 38.7197 48.7725L40.192 47.9225C40.5985 47.6878 40.7378 47.168 40.5031 46.7614L35.8153 38.6419ZM28.8308 41.4166C28.8308 40.9054 28.3827 40.5119 27.8723 40.5394C27.6268 40.5525 27.3796 40.5592 27.1308 40.5592C26.8821 40.5592 26.6349 40.5525 26.3894 40.5394C25.879 40.5119 25.4308 40.9054 25.4308 41.4166V50.8C25.4308 51.2694 25.8114 51.65 26.2808 51.65H27.9808C28.4503 51.65 28.8308 51.2694 28.8308 50.8V41.4166ZM21.3912 40.3414C21.6472 39.898 21.4547 39.3324 20.9979 39.1012C20.5561 38.8776 20.1281 38.6305 19.7156 38.3617C19.2872 38.0825 18.7021 38.1991 18.4464 38.6419L13.7586 46.7614C13.5239 47.1679 13.6632 47.6878 14.0697 47.9225L15.542 48.7725C15.9485 49.0072 16.4684 48.868 16.7031 48.4614L21.3912 40.3414ZM15.4787 35.6904C15.9228 35.434 16.0385 34.8467 15.7569 34.4181C15.4865 34.0066 15.2378 33.5796 15.0125 33.1386C14.7802 32.6839 14.2161 32.4933 13.774 32.7486L5.66945 37.4278C5.26291 37.6625 5.12361 38.1823 5.35833 38.5889L6.20833 40.0611C6.44305 40.4677 6.9629 40.607 7.36945 40.3722L15.4787 35.6904ZM12.6757 28.7C13.1879 28.7 13.5817 28.2501 13.5528 27.7388C13.5382 27.4808 13.5308 27.2209 13.5308 26.9592C13.5308 26.7233 13.5368 26.4889 13.5487 26.2559C13.5747 25.7464 13.1815 25.3 12.6714 25.3H3.33085C2.86141 25.3 2.48085 25.6806 2.48085 26.15V27.85C2.48085 28.3194 2.86141 28.7 3.33085 28.7H12.6757ZM13.7419 21.2329C14.1856 21.489 14.7517 21.2961 14.9826 20.8388C15.2058 20.3967 15.4523 19.9684 15.7207 19.5556C15.9993 19.1273 15.8825 18.5428 15.44 18.2873L7.36945 13.6278C6.96291 13.393 6.44305 13.5323 6.20833 13.9389L5.35833 15.4111C5.12361 15.8177 5.26291 16.3375 5.66945 16.5722L13.7419 21.2329ZM18.4122 15.2989C18.6684 15.7426 19.2551 15.8586 19.6836 15.5776C20.0954 15.3076 20.5227 15.0594 20.9639 14.8345C21.4191 14.6025 21.6102 14.038 21.3548 13.5955L16.7031 5.53861C16.4684 5.13206 15.9485 4.99276 15.542 5.22749L14.0697 6.07749C13.6632 6.31221 13.5239 6.83206 13.7586 7.23861L18.4122 15.2989Z" fill="#80ABFF"/>
<path d="M118.283 18.4473V34.8897C118.283 38.1163 118.349 40.6799 118.482 42.5805C118.615 44.4811 118.88 45.8955 119.278 46.8237C119.72 47.7519 120.361 48.3707 121.2 48.6801C122.084 48.9453 123.278 49.0779 124.781 49.0779L124.913 49.8735H107.145L107.277 49.0779C108.78 49.0779 109.951 48.9453 110.791 48.6801C111.675 48.3707 112.316 47.7519 112.714 46.8237C113.112 45.8955 113.355 44.4811 113.443 42.5805C113.576 40.6799 113.642 38.1163 113.642 34.8897V6.8448L95.0782 49.2105L75.9175 13.3422V34.7571C75.9175 37.9837 76.0059 40.5694 76.1827 42.5142C76.4037 44.4148 76.7794 45.8513 77.3098 46.8237C77.8402 47.7519 78.5695 48.3707 79.4977 48.6801C80.4701 48.9453 81.7077 49.0779 83.2105 49.0779L83.3431 49.8735H67.0333L67.1659 49.0779C68.6687 49.0779 69.8842 48.9453 70.8124 48.6801C71.7406 48.3707 72.4478 47.7519 72.934 46.8237C73.4644 45.8513 73.818 44.4148 73.9948 42.5142C74.1716 40.5694 74.26 37.9837 74.26 34.7571V18.5136C74.26 15.2428 74.1716 12.6571 73.9948 10.7565C73.818 8.8559 73.4644 7.4415 72.934 6.5133C72.4478 5.5409 71.7406 4.9221 70.8124 4.6569C69.8842 4.3475 68.6687 4.1928 67.1659 4.1928L67.0333 3.4635H75.9175L96.4042 42.1164L113.311 3.4635H124.913L124.781 4.1928C123.278 4.1928 122.084 4.3475 121.2 4.6569C120.361 4.9221 119.72 5.5409 119.278 6.5133C118.88 7.4415 118.615 8.8559 118.482 10.7565C118.349 12.6571 118.283 15.2207 118.283 18.4473Z" fill="#0059FF"/>
<path d="M135.563 17.8506V38.934C135.563 41.2324 135.607 43.0667 135.696 44.4369C135.784 45.7629 136.005 46.7574 136.359 47.4204C136.712 48.0834 137.265 48.5254 138.016 48.7464C138.768 48.9674 139.806 49.0779 141.132 49.0779L141.265 49.8735H125.088L125.22 49.0779C126.591 49.0779 127.651 48.9674 128.403 48.7464C129.198 48.5254 129.773 48.0834 130.127 47.4204C130.48 46.7132 130.701 45.6745 130.79 44.3043C130.878 42.9341 130.922 41.0998 130.922 38.8014V33.4974C130.922 30.2708 130.856 27.7072 130.723 25.8066C130.635 23.906 130.37 22.4916 129.928 21.5634C129.486 20.6352 128.823 20.0385 127.939 19.7733C127.099 19.4639 125.905 19.3092 124.358 19.3092L124.226 18.5799C124.226 18.5799 124.778 18.5136 125.883 18.381C127.033 18.2484 128.469 18.1379 130.193 18.0495C131.917 17.9169 133.707 17.8506 135.563 17.8506ZM129.265 7.2426C129.265 6.226 129.64 5.342 130.392 4.5906C131.143 3.8392 132.027 3.4635 133.044 3.4635C134.06 3.4635 134.944 3.8392 135.696 4.5906C136.447 5.342 136.823 6.226 136.823 7.2426C136.823 8.2592 136.447 9.1432 135.696 9.8946C134.944 10.646 134.06 11.0217 133.044 11.0217C132.027 11.0217 131.143 10.646 130.392 9.8946C129.64 9.1432 129.265 8.2592 129.265 7.2426Z" fill="#0059FF"/>
<path d="M161.711 17.5191C162.727 17.5191 163.678 17.7622 164.562 18.2484C165.446 18.6904 165.888 19.3534 165.888 20.2374C165.888 21.1214 165.6 21.8065 165.026 22.2927C164.451 22.7347 163.854 22.9557 163.236 22.9557C162.573 22.9557 161.998 22.8231 161.512 22.5579C161.07 22.2485 160.562 21.9612 159.987 21.696C159.457 21.3866 158.683 21.2319 157.666 21.2319C156.473 21.2319 155.434 22.0054 154.55 23.5524C153.666 25.0552 152.981 27.0221 152.495 29.4531C152.053 31.8841 151.832 34.4256 151.832 37.0776C151.832 39.8622 151.876 42.0722 151.965 43.7076C152.097 45.343 152.34 46.5364 152.694 47.2878C153.048 48.0392 153.6 48.5254 154.351 48.7464C155.103 48.9674 156.142 49.0779 157.468 49.0779L157.6 49.8735H141.489L141.622 49.0779C142.904 49.0779 143.92 48.9674 144.672 48.7464C145.423 48.5254 145.976 48.0392 146.329 47.2878C146.683 46.5364 146.904 45.343 146.992 43.7076C147.125 42.0722 147.191 39.8622 147.191 37.0776V33.2322C147.191 30.0056 147.125 27.4641 146.992 25.6077C146.904 23.7071 146.639 22.3148 146.197 21.4308C145.799 20.5468 145.158 19.9943 144.274 19.7733C143.434 19.5081 142.263 19.3755 140.76 19.3755L140.627 18.6462C140.627 18.6462 141.18 18.5799 142.285 18.4473C143.39 18.3147 144.782 18.1821 146.462 18.0495C148.186 17.9169 149.976 17.8506 151.832 17.8506V27.5967C152.318 24.4585 153.401 22.0054 155.081 20.2374C156.805 18.4252 159.015 17.5191 161.711 17.5191Z" fill="#0059FF"/>
<path d="M191.371 33.0996H169.625V34.2267C169.625 37.5417 170.111 40.26 171.083 42.3816C172.056 44.5032 173.338 46.0723 174.929 47.0889C176.52 48.1055 178.222 48.6138 180.034 48.6138C181.89 48.6138 183.68 48.216 185.404 47.4204C187.172 46.5806 188.564 45.2104 189.581 43.3098L190.576 43.8402C189.338 46.2712 187.68 47.995 185.603 49.0116C183.57 50.0282 181.382 50.5365 179.039 50.5365C176.564 50.5365 174.222 49.9398 172.012 48.7464C169.802 47.5088 168.011 45.6745 166.641 43.2435C165.271 40.8125 164.586 37.8069 164.586 34.2267C164.586 31.2211 165.138 28.4807 166.243 26.0055C167.348 23.5303 168.918 21.5634 170.951 20.1048C173.028 18.602 175.525 17.8506 178.443 17.8506C181.316 17.8506 183.702 18.5357 185.603 19.9059C187.504 21.2761 188.94 23.1104 189.913 25.4088C190.885 27.7072 191.371 30.2708 191.371 33.0996ZM178.509 19.1766C175.813 19.1766 173.757 20.3258 172.343 22.6242C170.929 24.9226 170.067 27.7735 169.757 31.1769H186.266C186.133 27.5525 185.47 24.6574 184.277 22.4916C183.084 20.2816 181.161 19.1766 178.509 19.1766Z" fill="#0059FF"/>
<path d="M202.718 17.8506V29.7183C202.983 27.8619 203.513 26.0276 204.309 24.2154C205.149 22.359 206.298 20.8341 207.757 19.6407C209.259 18.4473 211.094 17.8506 213.259 17.8506C216.663 17.8506 219.204 18.7788 220.884 20.6352C222.564 22.4474 223.403 25.0552 223.403 28.4586V38.934C223.403 41.9396 223.514 44.1717 223.735 45.6303C223.956 47.0889 224.464 48.0392 225.26 48.4812C226.055 48.879 227.315 49.0779 229.039 49.0779L229.171 49.8735H213.061L213.193 49.0779C214.563 49.0779 215.624 48.9674 216.376 48.7464C217.127 48.5254 217.657 48.0613 217.967 47.3541C218.32 46.6469 218.541 45.5861 218.63 44.1717C218.718 42.7131 218.762 40.7683 218.762 38.3373V29.1216C218.762 26.2486 218.32 23.9944 217.436 22.359C216.552 20.7236 214.895 19.9059 212.464 19.9059C210.917 19.9059 209.569 20.37 208.42 21.2982C207.315 22.2264 206.386 23.4419 205.635 24.9447C204.928 26.4033 204.353 27.9945 203.911 29.7183C203.469 31.4421 203.16 33.1217 202.983 34.7571C202.806 36.3483 202.718 37.7406 202.718 38.934C202.718 41.2324 202.762 43.0667 202.85 44.4369C202.939 45.7629 203.16 46.7574 203.513 47.4204C203.867 48.0834 204.419 48.5254 205.171 48.7464C205.922 48.9674 206.961 49.0779 208.287 49.0779L208.42 49.8735H192.242L192.375 49.0779C193.745 49.0779 194.806 48.9674 195.557 48.7464C196.353 48.5254 196.928 48.0834 197.281 47.4204C197.635 46.7132 197.856 45.6745 197.944 44.3043C198.033 42.9341 198.077 41.0998 198.077 38.8014V33.4974C198.077 30.2708 198.01 27.7072 197.878 25.8066C197.789 23.906 197.524 22.4916 197.082 21.5634C196.64 20.6352 195.977 20.0385 195.093 19.7733C194.253 19.4639 193.06 19.3092 191.513 19.3092L191.38 18.5799C191.38 18.5799 191.933 18.5136 193.038 18.381C194.187 18.2484 195.624 18.1379 197.347 18.0495C199.071 17.9169 200.861 17.8506 202.718 17.8506Z" fill="#0059FF"/>
</svg>
