<svg xmlns="http://www.w3.org/2000/svg" viewBox="0 0 54 54">
<style>
  path { fill: #000; }
  @media (prefers-color-scheme: dark) { path { fill: #fff; } }
</style>
<path d="M33.1297 1.32788C33.2512 0.874433 33.7173 0.605338 34.1707 0.726838C34.6242 0.848339 34.8933 1.31443 34.7718 1.76787L21.132 52.6722C21.0105 53.1256 20.5444 53.3947 20.091 53.2732C19.6375 53.1517 19.3684 52.6856 19.4899 52.2322L33.1297 1.32788Z"/>
<path d="M45.1622 7.76666C45.4941 7.43472 46.0323 7.43472 46.3642 7.76666C46.6962 8.09861 46.6962 8.6368 46.3642 8.96875L9.09972 46.2333C8.76777 46.5652 8.22958 46.5652 7.89763 46.2333C7.56569 45.9013 7.56569 45.3631 7.89763 45.0312L45.1622 7.76666Z"/>
<path d="M52.3631 19.3591C52.8165 19.2376 53.2826 19.5067 53.4041 19.9601C53.5256 20.4136 53.2565 20.8797 52.8031 21.0012L1.89876 34.6409C1.44532 34.7624 0.979232 34.4933 0.857731 34.0399C0.736231 33.5864 1.00533 33.1203 1.45877 32.9988L52.3631 19.3591Z"/>
<path d="M52.803 32.9989C53.2565 33.1204 53.5255 33.5865 53.404 34.0399C53.2825 34.4934 52.8165 34.7624 52.363 34.6409L1.45872 21.0012C1.00528 20.8797 0.73618 20.4136 0.85768 19.9602C0.979181 19.5067 1.44527 19.2376 1.89871 19.3591L52.803 32.9989Z"/>
<path d="M46.3642 45.0312C46.6962 45.3632 46.6962 45.9014 46.3642 46.2333C46.0323 46.5653 45.4941 46.5653 45.1621 46.2333L7.89761 8.96879C7.56566 8.63684 7.56566 8.09865 7.89761 7.76671C8.22955 7.43476 8.76774 7.43476 9.09969 7.76671L46.3642 45.0312Z"/>
<path d="M34.7718 52.2321C34.8933 52.6856 34.6242 53.1517 34.1708 53.2732C33.7173 53.3947 33.2512 53.1256 33.1297 52.6721L19.49 1.76784C19.3685 1.31439 19.6376 0.848306 20.091 0.726806C20.5444 0.605305 21.0105 0.8744 21.132 1.32785L34.7718 52.2321Z"/>
</svg>
